<?xml version="1.0" encoding="utf-8"?><svg xmlns="http://www.w3.org/2000/svg" xmlns:xlink="http://www.w3.org/1999/xlink"><symbol viewBox="0 0 10 19" id="fb"><path d="M7.1 19H2v-8.8H0V5.8h1.9c-.1-2 .2-3.4 1.1-4.4C3.8.5 5 .1 6.5 0H10v4.2H7.2c-.1.2-.2.8-.2 1.6h3v4.4H7.1V19zm-4-1h2.8V9.1h2.9V6.8H5.9v-.5c0-1.4 0-2.6.7-3.1l.1-.1h2.1V1H6.5c-1.2.1-2 .4-2.6 1-.8.8-1 2.3-.8 4.2l.1.6H1.1v2.3h2V18z"/></symbol><symbol viewBox="0 0 16 16" id="github"><path fill-rule="evenodd" d="M8 0C3.58 0 0 3.58 0 8c0 3.54 2.29 6.53 5.47 7.59.4.07.55-.17.55-.38 0-.19-.01-.82-.01-1.49-2.01.37-2.53-.49-2.69-.94-.09-.23-.48-.94-.82-1.13-.28-.15-.68-.52-.01-.53.63-.01 1.08.58 1.23.82.72 1.21 1.87.87 2.33.66.07-.52.28-.87.51-1.07-1.78-.2-3.64-.89-3.64-3.95 0-.87.31-1.59.82-2.15-.08-.2-.36-1.02.08-2.12 0 0 .67-.21 2.2.82.64-.18 1.32-.27 2-.27.68 0 1.36.09 2 .27 1.53-1.04 2.2-.82 2.2-.82.44 1.1.16 1.92.08 2.12.51.56.82 1.27.82 2.15 0 3.07-1.87 3.75-3.65 3.95.29.25.54.73.54 1.48 0 1.07-.01 1.93-.01 2.2 0 .21.15.46.55.38A8.013 8.013 0 0 0 16 8c0-4.42-3.58-8-8-8z"/></symbol><symbol viewBox="0 0 60 60" id="htmlacademy" xmlns="http://www.w3.org/2000/svg"><path d="M30.2 5H30L10.3 7.1v36.2L30 55l19.7-11.7V7.1L30.2 5zm17 36.8L30 52 12.8 41.8V27l17.1 10.2V39l-11.7-7v1.8L30 40.9v1.9l-11.8-7v1.8l11.8 7 11.9-7.1v-7.6l5.3-3.2v15.1zm-.1-17l-4.7 2.8-2.2 1.3-10.3-6.1v1.8l8.8 5.3h-.1l-.2.1-1.3.7-7.3-4.3v1.8l5.8 3.4-1.4.9-4.3-2.6v1.8l2.9 1.7-2.9 1.7-17-10.1 17-10.2 17.2 10zm.1-1.8L29.9 12.8 12.8 23V9.4L30 7.6l17.2 1.8V23z"/></symbol><symbol viewBox="0 0 16 16" id="insta"><path d="M11.8 1C13.6 1 15 2.4 15 4.2v7.7c0 1.7-1.4 3.1-3.1 3.1H4.2C2.4 15 1 13.6 1 11.8V4.2C1 2.4 2.4 1 4.2 1h7.6m0-1H4.2C1.9 0 0 1.9 0 4.2v7.7C0 14.1 1.9 16 4.2 16h7.7c2.3 0 4.2-1.9 4.2-4.2V4.2C16 1.9 14.1 0 11.8 0z"/><path d="M8 4.9c1.7 0 3.1 1.4 3.1 3.1 0 1.7-1.4 3.1-3.1 3.1-1.7 0-3.1-1.4-3.1-3.1 0-1.7 1.4-3.1 3.1-3.1m0-1C5.7 3.9 3.9 5.7 3.9 8s1.8 4.1 4.1 4.1 4.1-1.8 4.1-4.1S10.3 3.9 8 3.9z"/><circle cx="12.3" cy="3.7" r=".9"/></symbol><symbol viewBox="0 0 24 24" id="skype"><path d="M23.029 13.494c.34.481.599 1.003.78 1.575.18.57.271 1.16.271 1.771 0 .875-.177 1.697-.527 2.467a6.55 6.55 0 0 1-1.45 2.033c-.616.582-1.333 1.039-2.157 1.371s-1.691.495-2.613.495c-1.313 0-2.491-.31-3.536-.929-.29.04-.582.069-.877.091-.296.02-.589.028-.882.028-1.534 0-2.974-.275-4.321-.823a11.436 11.436 0 0 1-3.535-2.252A10.366 10.366 0 0 1 1.8 15.972a9.852 9.852 0 0 1-.868-4.105c0-.282.014-.55.044-.798.027-.248.064-.501.102-.754C.358 9.316 0 8.243 0 7.092c0-.856.177-1.665.528-2.426.35-.76.83-1.421 1.446-1.982A6.971 6.971 0 0 1 4.13 1.356 7.052 7.052 0 0 1 6.744.874a7.018 7.018 0 0 1 3.536.915c.289-.041.585-.07.877-.093.296-.018.592-.029.881-.029 1.539 0 2.984.268 4.335.801a11.287 11.287 0 0 1 3.542 2.192 10.42 10.42 0 0 1 2.393 3.245 9.216 9.216 0 0 1 .867 3.962 9.327 9.327 0 0 1-.146 1.627zm-5.696 3.202c.474-.624.708-1.357.708-2.199 0-.663-.132-1.22-.392-1.672a3.338 3.338 0 0 0-1.146-1.128c-.453-.292-1.042-.551-1.763-.783a92.947 92.947 0 0 0-2.307-.542l-.891-.203a11.264 11.264 0 0 1-.572-.133 4.266 4.266 0 0 1-.446-.133 7.122 7.122 0 0 1-.412-.162 2.097 2.097 0 0 1-.681-.451c-.14-.157-.21-.368-.21-.63 0-.383.228-.725.681-1.028.513-.283 1.14-.419 1.885-.41.861 0 1.466.127 1.807.382.412.302.735.674.966 1.113.201.322.405.562.616.72.201.154.48.237.831.248.395 0 .722-.131.997-.395.269-.246.398-.523.391-.835 0-.361-.102-.716-.302-1.058-.198-.321-.531-.663-.99-1.026a5.953 5.953 0 0 0-1.685-.776 8.21 8.21 0 0 0-1.115-.22c-.392-.049-.82-.072-1.294-.072-1.194 0-2.201.146-3.021.438-.881.304-1.548.722-2 1.264-.452.516-.678 1.136-.678 1.86 0 .762.219 1.382.651 1.86.435.517 1.024.908 1.769 1.173.708.283 1.613.531 2.723.745.415.098.778.181 1.099.244.316.062.603.133.854.21.473.129.857.345 1.15.652.313.266.47.608.47 1.03 0 .583-.286 1.055-.851 1.415-.534.369-1.256.551-2.165.538-.728 0-1.255-.084-1.589-.254-.415-.189-.721-.429-.922-.715a4.67 4.67 0 0 1-.623-1.079c-.143-.371-.336-.651-.588-.84a1.275 1.275 0 0 0-.833-.286c-.412 0-.752.115-1.021.341-.269.257-.398.558-.392.896 0 .589.218 1.178.65 1.768a4.47 4.47 0 0 0 1.651 1.422c.983.508 2.218.765 3.702.775 1.211 0 2.29-.18 3.229-.539.922-.409 1.61-.916 2.059-1.525z"/></symbol><symbol viewBox="0 0 512 512" id="twitter" xmlns="http://www.w3.org/2000/svg"><path d="M4 440.5c55.6 5 105.7-9 151.3-43.2-47.7-4.2-79.6-28-97.4-72.6 15.6 1.9 30.2 2.4 45.7-1.8-51.4-16-78.8-49.6-82.5-103.8 15.4 7.2 29.9 12.4 47 12.6-30.5-22.9-46.1-52.6-45.5-90 .3-17.2 4.9-33.4 14-48.7C93.1 159.1 164 195.7 251.3 201.8c-.5-3.8-.8-6.8-1.2-9.9-7.2-55.4 28.8-105.8 83.8-116.3 34.5-6.6 65 2.5 90.8 26.3 4 3.6 7.4 4.4 12.4 3.1 20.1-5.1 39.2-12.5 57.7-22.5-7.1 23.4-21.7 41-41.5 55.8 4.5-.8 9.1-1.4 13.6-2.3 4.7-1 9.4-2.1 14.1-3.4 4.5-1.2 8.9-2.6 13.3-4.1 4.5-1.5 9-3.2 14.3-4.1-2.6 3.6-5.1 7.4-7.9 10.9-11.6 14.7-25 27.6-39.7 39.1-1.5 1.2-2.8 3.8-2.7 5.6.8 35.5-4.2 70.1-15.7 103.7-22.6 66.2-62 119.8-121.1 158.1-29.2 18.9-61.1 31.3-95.2 38.5-33.8 7.1-67.8 8.4-101.9 4.4-34.2-4-66.7-14.1-97.3-29.9-8.1-4.1-15.9-8.7-23.8-13.1.3-.4.5-.8.7-1.2z"/></symbol><symbol viewBox="0 0 112.196 112.196" id="vk" xmlns="http://www.w3.org/2000/svg"><circle cx="56.098" cy="56.098" r="56.098"/><path d="M53.979 80.702h4.403s1.33-.146 2.009-.878c.625-.672.605-1.934.605-1.934s-.086-5.908 2.656-6.778c2.703-.857 6.174 5.71 9.853 8.235 2.782 1.911 4.896 1.492 4.896 1.492l9.837-.137s5.146-.317 2.706-4.363c-.2-.331-1.421-2.993-7.314-8.463-6.168-5.725-5.342-4.799 2.088-14.702 4.525-6.031 6.334-9.713 5.769-11.29-.539-1.502-3.867-1.105-3.867-1.105l-11.076.069s-.821-.112-1.43.252c-.595.357-.978 1.189-.978 1.189s-1.753 4.667-4.091 8.636c-4.932 8.375-6.904 8.817-7.71 8.297-1.875-1.212-1.407-4.869-1.407-7.467 0-8.116 1.231-11.5-2.397-12.376-1.204-.291-2.09-.483-5.169-.514-3.952-.041-7.297.012-9.191.94-1.26.617-2.232 1.992-1.64 2.071.732.098 2.39.447 3.269 1.644 1.135 1.544 1.095 5.012 1.095 5.012s.652 9.554-1.523 10.741c-1.493.814-3.541-.848-7.938-8.446-2.253-3.892-3.954-8.194-3.954-8.194s-.328-.804-.913-1.234c-.71-.521-1.702-.687-1.702-.687l-10.525.069s-1.58.044-2.16.731c-.516.611-.041 1.875-.041 1.875s8.24 19.278 17.57 28.993c8.555 8.907 18.27 8.322 18.27 8.322z" fill-rule="evenodd" clip-rule="evenodd"/></symbol></svg>